<svg width="347" height="335" viewBox="0 0 347 335" fill="none" xmlns="http://www.w3.org/2000/svg">
<path d="M306.021 0H254.629C227.378 0 201.479 11.6984 183.492 32.1199C178.15 38.2058 168.886 38.2734 163.408 32.1199C145.421 11.6984 119.522 0 92.2711 0H40.9468C18.5643 0 0.374268 18.19 0.374268 40.5725V256.959C0.374268 279.342 18.5643 297.532 40.9468 297.532H92.3387C111.814 297.532 130.342 305.917 143.122 320.456C159.216 338.781 187.617 338.848 203.778 320.456C216.626 305.917 235.086 297.532 254.561 297.532H305.953C328.336 297.532 346.526 279.342 346.526 256.959V40.5725C346.526 18.19 328.336 0 305.953 0H306.021Z" fill="white"/>
<path d="M54.471 256.959V40.5725C54.471 25.6283 66.5751 13.5242 81.5193 13.5242H40.9468C26.0026 13.5242 13.8984 25.6283 13.8984 40.5725V256.959C13.8984 271.904 26.0026 284.008 40.9468 284.008H81.5193C66.5751 284.008 54.471 271.904 54.471 256.959Z" fill="#800020" fill-opacity="0.1"/>
<path d="M187.008 256.96V121.718C187.008 114.279 180.922 108.193 173.484 108.193C166.045 108.193 159.96 114.279 159.96 121.718V256.96C159.96 264.398 166.045 270.484 173.484 270.484C180.922 270.484 187.008 264.398 187.008 256.96Z" fill="#FFD15C"/>
<path d="M306.021 0H254.629C227.378 0 201.479 11.6984 183.492 32.1199C178.15 38.2058 168.886 38.2734 163.408 32.1199C145.421 11.6984 119.522 0 92.2711 0H40.9468C18.5643 0 0.374268 18.19 0.374268 40.5725V256.959C0.374268 279.342 18.5643 297.532 40.9468 297.532H92.3387C111.814 297.532 130.342 305.917 143.122 320.456C159.216 338.781 187.617 338.848 203.778 320.456C216.626 305.917 235.086 297.532 254.561 297.532H305.953C328.336 297.532 346.526 279.342 346.526 256.959V40.5725C346.526 18.19 328.336 0 305.953 0H306.021ZM319.545 256.959C319.545 264.398 313.459 270.484 306.021 270.484H254.629C227.378 270.484 201.479 282.182 183.492 302.604C178.15 308.689 168.886 308.757 163.408 302.604C145.421 282.182 119.522 270.484 92.2711 270.484H40.9468C33.5085 270.484 27.4226 264.398 27.4226 256.959V40.5725C27.4226 33.1342 33.5085 27.0484 40.9468 27.0484H92.3387C111.814 27.0484 130.342 35.4334 143.122 49.9719C159.216 68.2295 187.617 68.3647 203.778 49.9719C216.626 35.4334 235.086 27.0484 254.561 27.0484H305.953C313.391 27.0484 319.477 33.1342 319.477 40.5725V256.959H319.545Z" fill="#800020"/>
<path d="M278.972 81.1451H251.924C241.105 81.1451 230.488 82.9709 220.413 86.4872C213.38 88.9892 209.661 96.6979 212.163 103.731C214.665 110.763 222.374 114.482 229.406 111.98C236.642 109.411 244.215 108.126 251.992 108.126H279.04C286.478 108.126 292.564 102.04 292.564 94.6017C292.564 87.1634 286.478 81.0775 279.04 81.0775L278.972 81.1451Z" fill="#800020"/>
<path d="M126.555 86.4872C116.479 82.9033 105.863 81.1451 95.0435 81.1451H67.9951C60.5568 81.1451 54.4709 87.231 54.4709 94.6693C54.4709 102.108 60.5568 108.194 67.9951 108.194H95.0435C102.82 108.194 110.393 109.478 117.629 112.048C124.729 114.55 132.438 110.831 134.872 103.798C137.374 96.7656 133.655 89.0568 126.622 86.5548L126.555 86.4872Z" fill="#800020"/>
<path d="M278.972 135.242H251.924C241.105 135.242 230.488 137.068 220.413 140.584C213.38 143.086 209.661 150.795 212.163 157.827C214.665 164.86 222.374 168.579 229.406 166.077C236.642 163.507 244.215 162.223 251.992 162.223H279.04C286.478 162.223 292.564 156.137 292.564 148.698C292.564 141.26 286.478 135.174 279.04 135.174L278.972 135.242Z" fill="#800020"/>
<path d="M126.555 140.584C116.479 137 105.863 135.242 95.0435 135.242H67.9951C60.5568 135.242 54.4709 141.328 54.4709 148.766C54.4709 156.204 60.5568 162.29 67.9951 162.29H95.0435C102.82 162.29 110.393 163.575 117.629 166.145C124.729 168.647 132.438 164.927 134.872 157.895C137.374 150.862 133.655 143.153 126.622 140.651L126.555 140.584Z" fill="#800020"/>
<path d="M278.972 189.339H251.924C241.105 189.339 230.488 191.164 220.413 194.681C213.38 197.183 209.661 204.891 212.163 211.924C214.665 218.957 222.374 222.676 229.406 220.174C236.642 217.604 244.215 216.319 251.992 216.319H279.04C286.478 216.319 292.564 210.233 292.564 202.795C292.564 195.357 286.478 189.271 279.04 189.271L278.972 189.339Z" fill="#800020"/>
<path d="M126.555 194.681C116.479 191.097 105.863 189.339 95.0435 189.339H67.9951C60.5568 189.339 54.4709 195.424 54.4709 202.863C54.4709 210.301 60.5568 216.387 67.9951 216.387H95.0435C102.82 216.387 110.393 217.672 117.629 220.241C124.729 222.743 132.438 219.024 134.872 211.992C137.374 204.959 133.655 197.25 126.622 194.748L126.555 194.681Z" fill="#800020"/>
</svg>
